<svg xmlns="http://www.w3.org/2000/svg" xmlns:xlink="http://www.w3.org/1999/xlink" viewBox="0 0 800.53 452"><defs><style>.cls-1{isolation:isolate;}.cls-14,.cls-2{opacity:0.24;}.cls-10,.cls-11,.cls-12,.cls-2,.cls-22,.cls-23,.cls-24{mix-blend-mode:multiply;}.cls-10,.cls-11,.cls-12,.cls-13,.cls-15,.cls-16,.cls-17,.cls-18,.cls-19,.cls-20,.cls-21,.cls-22,.cls-23,.cls-24,.cls-25,.cls-3,.cls-4,.cls-5,.cls-6,.cls-7,.cls-8,.cls-9{opacity:0.62;}.cls-3{fill:url(#Degradado_sin_nombre_50);}.cls-4{fill:url(#Degradado_sin_nombre_33);}.cls-5{fill:url(#Degradado_sin_nombre_33-2);}.cls-6{fill:url(#Degradado_sin_nombre_43);}.cls-7{fill:url(#Degradado_sin_nombre_33-3);}.cls-8{fill:url(#Degradado_sin_nombre_21);}.cls-9{fill:url(#Degradado_sin_nombre_46);}.cls-10{fill:url(#Degradado_sin_nombre_37);}.cls-11{fill:url(#Degradado_sin_nombre_33-4);}.cls-12{fill:url(#Degradado_sin_nombre_32);}.cls-13{fill:url(#Degradado_sin_nombre_33-5);}.cls-15{fill:url(#Degradado_sin_nombre_50-2);}.cls-16{fill:url(#Degradado_sin_nombre_33-6);}.cls-17{fill:url(#Degradado_sin_nombre_33-7);}.cls-18{fill:url(#Degradado_sin_nombre_43-2);}.cls-19{fill:url(#Degradado_sin_nombre_33-8);}.cls-20{fill:url(#Degradado_sin_nombre_21-2);}.cls-21{fill:url(#Degradado_sin_nombre_46-2);}.cls-22{fill:url(#Degradado_sin_nombre_37-2);}.cls-23{fill:url(#Degradado_sin_nombre_33-9);}.cls-24{fill:url(#Degradado_sin_nombre_32-2);}.cls-25{fill:url(#Degradado_sin_nombre_33-10);}</style><linearGradient id="Degradado_sin_nombre_50" x1="522.14" y1="319.82" x2="775.63" y2="319.82" gradientUnits="userSpaceOnUse"><stop offset="0" stop-color="#98f3fe"/><stop offset="0.12" stop-color="#97f2fe" stop-opacity="0.98"/><stop offset="0.24" stop-color="#94effd" stop-opacity="0.94"/><stop offset="0.36" stop-color="#8eeafb" stop-opacity="0.86"/><stop offset="0.48" stop-color="#86e3f9" stop-opacity="0.75"/><stop offset="0.59" stop-color="#7cdaf6" stop-opacity="0.62"/><stop offset="0.71" stop-color="#70d0f2" stop-opacity="0.45"/><stop offset="0.82" stop-color="#61c3ed" stop-opacity="0.24"/><stop offset="0.93" stop-color="#50b4e8" stop-opacity="0.02"/><stop offset="0.94" stop-color="#4fb3e8" stop-opacity="0"/></linearGradient><linearGradient id="Degradado_sin_nombre_33" x1="565.67" y1="237.17" x2="800.53" y2="237.17" gradientUnits="userSpaceOnUse"><stop offset="0" stop-color="#98f3fe"/><stop offset="0.97" stop-color="#4db1e7" stop-opacity="0"/></linearGradient><linearGradient id="Degradado_sin_nombre_33-2" x1="477.18" y1="315.76" x2="796.32" y2="315.76" xlink:href="#Degradado_sin_nombre_33"/><linearGradient id="Degradado_sin_nombre_43" x1="564.59" y1="279.18" x2="800.47" y2="279.18" gradientUnits="userSpaceOnUse"><stop offset="0" stop-color="#4db1e7"/><stop offset="0.18" stop-color="#4eb2e7" stop-opacity="0.99"/><stop offset="0.32" stop-color="#51b5e8" stop-opacity="0.95"/><stop offset="0.44" stop-color="#56b9ea" stop-opacity="0.88"/><stop offset="0.56" stop-color="#5ec0ec" stop-opacity="0.78"/><stop offset="0.66" stop-color="#67c8ef" stop-opacity="0.65"/><stop offset="0.77" stop-color="#73d2f3" stop-opacity="0.49"/><stop offset="0.87" stop-color="#81dff7" stop-opacity="0.31"/><stop offset="0.96" stop-color="#91ecfc" stop-opacity="0.1"/><stop offset="1" stop-color="#98f3fe" stop-opacity="0"/></linearGradient><linearGradient id="Degradado_sin_nombre_33-3" x1="85.4" y1="167.31" x2="787.77" y2="167.31" xlink:href="#Degradado_sin_nombre_33"/><linearGradient id="Degradado_sin_nombre_21" y1="118.31" x2="786.82" y2="118.31" gradientUnits="userSpaceOnUse"><stop offset="0" stop-color="#98f3fe"/><stop offset="0.22" stop-color="#97f2fe" stop-opacity="0.99"/><stop offset="0.35" stop-color="#95f0fd" stop-opacity="0.96"/><stop offset="0.46" stop-color="#91ecfc" stop-opacity="0.9"/><stop offset="0.56" stop-color="#8be7fa" stop-opacity="0.82"/><stop offset="0.65" stop-color="#83e0f7" stop-opacity="0.72"/><stop offset="0.73" stop-color="#79d8f5" stop-opacity="0.59"/><stop offset="0.81" stop-color="#6ecef1" stop-opacity="0.44"/><stop offset="0.88" stop-color="#60c2ed" stop-opacity="0.26"/><stop offset="0.95" stop-color="#52b5e9" stop-opacity="0.07"/><stop offset="0.97" stop-color="#4db1e7" stop-opacity="0"/></linearGradient><linearGradient id="Degradado_sin_nombre_46" x1="424.87" y1="188.13" x2="794.47" y2="188.13" gradientUnits="userSpaceOnUse"><stop offset="0" stop-color="#98f3fe"/><stop offset="0.17" stop-color="#97f2fe" stop-opacity="0.99"/><stop offset="0.3" stop-color="#94f0fd" stop-opacity="0.95"/><stop offset="0.41" stop-color="#90ecfb" stop-opacity="0.89"/><stop offset="0.52" stop-color="#89e6f9" stop-opacity="0.8"/><stop offset="0.62" stop-color="#80def7" stop-opacity="0.68"/><stop offset="0.72" stop-color="#75d5f3" stop-opacity="0.54"/><stop offset="0.81" stop-color="#69c9f0" stop-opacity="0.37"/><stop offset="0.9" stop-color="#5abdeb" stop-opacity="0.18"/><stop offset="0.97" stop-color="#4db1e7" stop-opacity="0"/></linearGradient><linearGradient id="Degradado_sin_nombre_37" x1="264.23" y1="202.88" x2="790.5" y2="202.88" gradientUnits="userSpaceOnUse"><stop offset="0" stop-color="#4db1e7"/><stop offset="1" stop-color="#98f3fe" stop-opacity="0"/></linearGradient><linearGradient id="Degradado_sin_nombre_33-4" x1="299.76" y1="295.81" x2="791.21" y2="295.81" xlink:href="#Degradado_sin_nombre_33"/><linearGradient id="Degradado_sin_nombre_32" x1="155.61" y1="355.14" x2="788.7" y2="355.14" gradientUnits="userSpaceOnUse"><stop offset="0" stop-color="#4db1e7"/><stop offset="0.15" stop-color="#4eb2e7" stop-opacity="0.98"/><stop offset="0.28" stop-color="#52b5e8" stop-opacity="0.94"/><stop offset="0.41" stop-color="#58baea" stop-opacity="0.86"/><stop offset="0.53" stop-color="#60c2ed" stop-opacity="0.75"/><stop offset="0.65" stop-color="#6bcbf0" stop-opacity="0.61"/><stop offset="0.77" stop-color="#78d7f4" stop-opacity="0.43"/><stop offset="0.89" stop-color="#87e4f9" stop-opacity="0.23"/><stop offset="1" stop-color="#98f3fe" stop-opacity="0"/></linearGradient><linearGradient id="Degradado_sin_nombre_33-5" x1="462.43" y1="251.07" x2="795.76" y2="251.07" xlink:href="#Degradado_sin_nombre_33"/><linearGradient id="Degradado_sin_nombre_50-2" x1="607.25" y1="284.4" x2="747.86" y2="284.4" xlink:href="#Degradado_sin_nombre_50"/><linearGradient id="Degradado_sin_nombre_33-6" x1="631.4" y1="238.55" x2="761.68" y2="238.55" xlink:href="#Degradado_sin_nombre_33"/><linearGradient id="Degradado_sin_nombre_33-7" x1="582.32" y1="282.14" x2="759.34" y2="282.14" xlink:href="#Degradado_sin_nombre_33"/><linearGradient id="Degradado_sin_nombre_43-2" x1="630.8" y1="261.85" x2="761.64" y2="261.85" xlink:href="#Degradado_sin_nombre_43"/><linearGradient id="Degradado_sin_nombre_33-8" x1="365" y1="199.8" x2="754.59" y2="199.8" xlink:href="#Degradado_sin_nombre_33"/><linearGradient id="Degradado_sin_nombre_21-2" x1="317.63" y1="172.62" x2="754.07" y2="172.62" xlink:href="#Degradado_sin_nombre_21"/><linearGradient id="Degradado_sin_nombre_46-2" x1="553.3" y1="211.35" x2="758.31" y2="211.35" xlink:href="#Degradado_sin_nombre_46"/><linearGradient id="Degradado_sin_nombre_37-2" x1="464.2" y1="219.53" x2="756.11" y2="219.53" xlink:href="#Degradado_sin_nombre_37"/><linearGradient id="Degradado_sin_nombre_33-9" x1="483.91" y1="271.08" x2="756.51" y2="271.08" xlink:href="#Degradado_sin_nombre_33"/><linearGradient id="Degradado_sin_nombre_32-2" x1="403.95" y1="303.99" x2="755.11" y2="303.99" xlink:href="#Degradado_sin_nombre_32"/><linearGradient id="Degradado_sin_nombre_33-10" x1="574.14" y1="246.26" x2="759.03" y2="246.26" xlink:href="#Degradado_sin_nombre_33"/></defs><title>customer service bg</title><g class="cls-1"><g id="BACKGROUND"><g class="cls-2"><polygon class="cls-3" points="775.63 282.76 522.14 372.72 522.14 316.46 775.63 266.92 775.63 282.76"/><polygon class="cls-4" points="800.53 250.95 565.67 261.83 565.67 212.51 800.53 239.08 800.53 250.95"/><polygon class="cls-5" points="796.32 272.11 477.18 371.95 477.18 308.52 796.32 259.57 796.32 272.11"/><polygon class="cls-6" points="800.47 262.07 564.59 308.16 564.59 258.68 800.47 250.19 800.47 262.07"/><polygon class="cls-7" points="787.77 244.07 85.4 216.43 85.4 90.54 787.77 230.17 787.77 244.07"/><polygon class="cls-8" points="786.82 236.62 0 139.5 0 0 786.82 222.57 786.82 236.62"/><polygon class="cls-9" points="794.47 240.38 424.87 207.66 424.87 135.89 794.47 227.54 794.47 240.38"/><polygon class="cls-10" points="790.5 248.07 264.23 251.57 264.23 154.19 790.5 234.6 790.5 248.07"/><polygon class="cls-11" points="791.21 261.48 299.76 343.5 299.76 251.79 791.21 248.13 791.21 261.48"/><polygon class="cls-12" points="788.7 272.03 155.61 452 155.61 337.31 788.7 258.28 788.7 272.03"/><polygon class="cls-13" points="795.76 254.5 462.43 283.95 462.43 218.18 795.76 241.87 795.76 254.5"/></g><g class="cls-14"><polygon class="cls-15" points="747.86 263.84 607.25 313.74 607.25 282.53 747.86 255.05 747.86 263.84"/><polygon class="cls-16" points="761.68 246.2 631.4 252.23 631.4 224.88 761.68 239.61 761.68 246.2"/><polygon class="cls-17" points="759.34 257.93 582.32 313.31 582.32 278.13 759.34 250.98 759.34 257.93"/><polygon class="cls-18" points="761.64 252.36 630.8 277.93 630.8 250.48 761.64 245.77 761.64 252.36"/><polygon class="cls-19" points="754.59 242.38 365 227.05 365 157.22 754.59 234.67 754.59 242.38"/><polygon class="cls-20" points="754.07 238.25 317.63 184.38 317.63 107 754.07 230.45 754.07 238.25"/><polygon class="cls-21" points="758.31 240.33 553.3 222.18 553.3 182.37 758.31 233.21 758.31 240.33"/><polygon class="cls-22" points="756.11 244.6 464.2 246.54 464.2 192.53 756.11 237.13 756.11 244.6"/><polygon class="cls-23" points="756.51 252.04 483.9 297.53 483.9 246.66 756.51 244.63 756.51 252.04"/><polygon class="cls-24" points="755.11 257.89 403.95 357.71 403.95 294.1 755.11 250.26 755.11 257.89"/><polygon class="cls-25" points="759.03 248.17 574.13 264.5 574.13 228.02 759.03 241.16 759.03 248.17"/></g></g></g></svg>